HIERARCHY
ROOT hip
{
	OFFSET 0.000000 0.000000 0.000000 
	CHANNELS 6 Xposition Yposition Zposition Xrotation Zrotation Yrotation
	JOINT abdomen
	{
		OFFSET 0.000000 3.402643 0.000000 
		CHANNELS 3 Xrotation Zrotation Yrotation
		JOINT chest
		{
			OFFSET 0.000000 8.438565 -0.680529 
			CHANNELS 3 Xrotation Zrotation Yrotation
			JOINT neck
			{
				OFFSET 0.000000 10.207942 -0.272212 
				CHANNELS 3 Xrotation Zrotation Yrotation
				JOINT head
				{
					OFFSET 0.000000 3.130431 0.000000 
					CHANNELS 3 Xrotation Zrotation Yrotation
					End Site
					{
						OFFSET 0.000000 3.130435 0.000000 
					}
				}
			}
			JOINT lCollar
			{
				OFFSET 3.470700 6.669187 -0.816635 
				CHANNELS 3 Yrotation Zrotation Xrotation
				JOINT lShldr
				{
					OFFSET 3.198488 0.000000 0.000000 
					CHANNELS 3 Zrotation Yrotation Xrotation
					JOINT lForeArm
					{
						OFFSET 10.139888 0.000000 0.000000 
						CHANNELS 3 Yrotation Zrotation Xrotation
						JOINT lHand
						{
							OFFSET 8.370511 0.000000 0.000000 
							CHANNELS 3 Zrotation Yrotation Xrotation
							End Site
							{
								OFFSET 4.083176 0.000000 0.000000 
							}
						}
					}
				}
			}
			JOINT rCollar
			{
				OFFSET -3.470700 6.669187 -0.816635 
				CHANNELS 3 Yrotation Zrotation Xrotation
				JOINT rShldr
				{
					OFFSET -3.198488 0.000000 0.000000 
					CHANNELS 3 Zrotation Yrotation Xrotation
					JOINT rForeArm
					{
						OFFSET -10.139888 0.000000 0.000000 
						CHANNELS 3 Yrotation Zrotation Xrotation
						JOINT rHand
						{
							OFFSET -8.370511 0.000000 0.000000 
							CHANNELS 3 Zrotation Yrotation Xrotation
							End Site
							{
								OFFSET -4.083176 0.000000 0.000000 
							}
						}
					}
				}
			}
		}
	}
	JOINT lThigh
	{
		OFFSET 5.308129 -1.633274 1.361059 
		CHANNELS 3 Xrotation Zrotation Yrotation
		JOINT lShin
		{
			OFFSET -2.041588 -20.007561 0.000000 
			CHANNELS 3 Xrotation Zrotation Yrotation
			JOINT lFoot
			{
				OFFSET 0.000000 -19.190928 -1.224953 
				CHANNELS 3 Xrotation Yrotation Zrotation
				End Site
				{
					OFFSET 0.000000 -2.449906 4.627600 
				}
			}
		}
	}
	JOINT rThigh
	{
		OFFSET -5.308129 -1.633274 1.361059 
		CHANNELS 3 Xrotation Zrotation Yrotation
		JOINT rShin
		{
			OFFSET 2.041588 -20.007561 0.000000 
			CHANNELS 3 Xrotation Zrotation Yrotation
			JOINT rFoot
			{
				OFFSET 0.000000 -19.190928 -1.224953 
				CHANNELS 3 Xrotation Yrotation Zrotation
				End Site
				{
					OFFSET 0.000000 -2.449906 4.627600 
				}
			}
		}
	}
}
MOTION
Frames: 20
Frame Time: 0.016667
0.000000 45.191513 95.906990 -169.980469 0.166016 0.029297 45.166016 -0.527344 -0.312590 0.000000 0.000000 0.000000 -74.150391 -1.591797 -0.009766 5.595703 2.050781 -0.214844 0.000000 0.000000 0.000000 -86.718742 -162.480469 3.776357 -31.982422 -1.152344 94.687500 35.966797 2.080078 -6.689453 0.000000 0.000000 0.000000 84.677734 161.904297 4.172956 44.619137 -0.927734 89.853516 -37.041016 5.546875 -6.767579 51.854630 4.042952 -0.586488 57.929321 -2.785894 -3.689752 0.342503 0.234546 -0.089229 47.189091 -5.457884 -0.581609 58.260155 2.090273 4.399428 0.342154 0.174555 -0.132635 
0.000000 39.577297 106.411087 -152.402344 0.146484 0.078150 45.166016 -0.527344 -0.312590 0.000000 0.000000 0.000000 -74.150391 -1.591797 -0.009766 5.595703 2.050781 -0.214844 0.000000 0.000000 0.000000 -86.718742 -162.480469 3.776357 -30.234371 -1.201172 94.765831 11.201172 -1.064453 -7.090025 0.000000 0.000000 0.000000 84.677734 161.904297 4.172956 44.619137 -0.927734 89.853516 -12.050780 7.978516 -3.885363 51.854630 4.042950 -0.586488 57.929321 -2.785892 -3.689751 0.338591 0.244524 -0.095880 47.189091 -5.457885 -0.581609 58.260155 2.090274 4.399428 0.340172 0.179856 -0.130617 
0.000000 39.318329 116.458481 -135.000000 0.117188 0.117188 45.166016 -0.527344 -0.312590 0.000000 0.000000 0.000000 -74.150391 -1.591797 -0.009766 5.595703 2.050781 -0.214844 0.000000 0.000000 0.000000 -86.718742 -162.480469 3.776357 -28.476563 -1.240234 94.843750 -13.095703 -3.798828 -6.015625 0.000000 0.000000 0.000000 84.677734 161.904297 4.172956 44.619137 -0.927734 89.853516 12.861328 8.876953 -0.281696 51.854630 4.042953 -0.586488 57.929321 -2.785891 -3.689751 0.323435 0.184607 0.079834 47.189091 -5.457883 -0.581609 58.260155 2.090275 4.399428 0.333086 0.156441 0.048364 
0.000000 44.970852 123.308990 -112.500000 0.058594 0.156260 25.830078 -0.527344 -0.312590 0.000000 0.000000 0.000000 -66.240234 -1.542969 0.048565 5.595703 2.050781 -0.214844 0.000000 0.000000 0.000000 -94.892578 -115.761719 11.973628 -24.628908 -0.927734 65.068359 -3.330078 0.908203 -18.847656 0.000000 0.000000 0.000000 93.408218 114.414063 12.616314 36.962891 -3.662110 61.455078 15.410156 1.679688 12.861614 39.690067 4.042994 -0.224422 44.520786 -3.307024 -3.053789 -4.030488 0.199893 -0.106593 36.314362 -5.644505 -0.227108 45.182926 3.612399 3.912734 -4.380814 0.177327 0.064518 
0.000000 45.975964 130.159500 -90.185547 0.000000 0.000000 6.318359 -0.527344 -0.312590 0.000000 0.000000 0.000000 -58.164059 -1.494141 0.126699 5.595703 2.050781 -0.214844 0.000000 0.000000 0.000000 -69.541016 -67.275391 -13.554688 -21.210939 -2.744141 35.009766 5.283203 7.841796 -30.654299 0.000000 0.000000 0.000000 69.570313 65.410164 -11.738280 28.994143 -2.197266 32.793335 16.376955 -5.830078 25.848618 27.107862 3.847672 -0.481578 31.076054 -3.656425 -2.150974 -8.412170 0.295460 0.126875 25.040298 -5.623486 -0.328568 31.328842 4.353600 2.691150 -8.406966 0.401826 0.187108 
0.000000 46.662682 136.553299 -67.685547 0.000000 0.000000 -13.017578 -0.527344 -0.312500 0.000000 0.000000 0.000000 -50.253906 -1.464844 0.204828 5.595703 2.050781 -0.214844 0.000000 0.000000 0.000000 -79.199219 -20.624998 -3.867188 -19.208982 -5.771485 5.196295 12.460938 16.230469 -41.787109 0.000000 0.000000 0.000000 78.212891 17.968750 -3.649330 22.480469 2.910156 4.628410 15.791017 -13.281251 38.864944 14.592168 3.826675 -0.337961 17.680111 -3.918166 -1.212714 -12.812429 0.040073 0.020569 13.940698 -5.428356 -0.542453 17.667074 4.655516 1.653309 -12.818216 0.301338 0.154713 
0.000000 48.290142 143.403763 -55.371094 0.000000 0.000000 -1.767578 -0.527344 -0.312500 0.000000 0.000000 0.000000 -42.343746 -1.445313 0.282957 5.595703 2.050781 -0.214844 0.000000 0.000000 0.000000 -79.248047 -19.921873 -3.837891 -13.037110 -5.859375 5.468750 10.517579 10.000001 -30.027597 0.000000 0.000000 0.000000 78.164063 18.671875 -3.658983 15.087892 3.007812 4.765112 11.035156 -6.806641 24.511719 14.592168 3.826675 -0.337961 14.611965 -3.887750 -0.984662 -17.382500 0.022426 0.190062 14.670765 -5.437302 -0.347680 12.619342 4.879478 1.077363 -17.380785 0.171760 0.296574 
0.000000 48.658451 150.254288 -43.066406 0.000000 0.000000 9.482421 -0.527344 -0.312500 0.000000 0.000000 0.000000 -34.433594 -1.425781 0.361085 5.595703 2.050781 -0.214844 0.000000 0.000000 0.000000 -79.296875 -19.218750 -3.740235 -7.041016 -5.917970 5.742188 7.451172 4.189453 -18.163345 0.000000 0.000000 0.000000 78.164063 18.671875 -3.658983 7.529296 3.085937 4.912110 4.951172 -1.699219 9.550780 14.592168 3.826674 -0.337961 11.498278 -3.867833 -0.766659 -21.787096 0.022612 0.013943 15.597973 -5.456760 -0.328592 7.322901 4.852550 0.491060 -21.784012 0.260779 0.374875 
0.000000 47.420250 156.648071 -31.113281 0.000000 0.000000 20.732422 -0.527344 -0.312590 0.000000 0.000000 0.000000 -26.357422 -1.425781 0.448976 5.595703 2.050781 -0.214844 0.000000 0.000000 0.000000 -79.345703 -18.515625 -3.714039 -0.683594 -5.947266 6.044921 3.398438 -0.849609 -6.152472 0.000000 0.000000 0.000000 78.164063 18.671875 -3.658983 -0.039063 3.134766 5.078125 -2.050781 1.523438 -5.429688 14.954506 3.827327 -0.352280 8.387869 -4.061681 -0.543028 -26.337364 -0.064047 0.369519 16.178450 -5.419434 -0.315981 2.087726 5.013344 0.070393 -26.346060 0.091039 0.462432 
0.000000 45.480865 158.018188 -28.828125 0.000000 0.000000 56.416012 -0.527344 -0.312500 0.000000 0.000000 0.000000 -26.357422 -1.425781 0.448976 5.595703 2.050781 -0.214844 0.000000 0.000000 0.000000 -79.345703 -18.515625 -3.714039 -0.683594 -5.947266 6.044921 3.398438 -0.849609 -6.152472 0.000000 0.000000 0.000000 78.164063 18.671875 -3.658983 -0.039063 3.134766 5.078125 -2.050781 1.523438 -5.429688 -4.158320 3.787399 0.054798 39.925938 -3.029357 -2.611048 -23.182840 -0.245501 0.059638 -2.830703 -5.446624 -0.429889 35.438808 3.831958 2.890593 -26.345263 0.164145 0.500173 
0.000000 40.574505 159.388275 -26.728516 0.000000 0.000000 92.275391 -0.527344 -0.312590 0.000000 0.000000 0.000000 -26.357422 -1.425781 0.448976 5.595703 2.050781 -0.214844 0.000000 0.000000 0.000000 -79.345703 -18.515625 -3.714039 -0.683594 -5.947266 6.044921 3.398438 -0.849609 -6.152472 0.000000 0.000000 0.000000 78.164063 18.671875 -3.658983 -0.039063 3.134766 5.078125 -2.050781 1.523438 -5.429688 -23.795282 3.827212 0.281108 71.980469 -1.012744 -3.833682 -20.390484 0.075685 0.034196 -21.997013 -5.418760 -0.546403 68.444092 1.220728 4.595570 -26.355600 0.288697 0.205785 
0.000000 42.050755 160.301697 -24.267578 0.000000 0.000000 85.771484 -0.527344 -0.312590 0.000000 0.000000 0.000000 -26.357422 -1.425781 0.448976 5.595703 2.050781 -0.214844 0.000000 0.000000 0.000000 -79.345703 -18.515625 -3.714039 -0.683594 -5.947266 6.044921 3.398438 -0.849609 -6.152472 0.000000 0.000000 0.000000 78.164063 18.671875 -3.658983 -0.039063 3.134766 5.078125 -2.050781 1.523438 -5.429688 -21.127394 3.816898 0.186792 65.130638 -1.354365 -3.767027 -18.631834 0.179071 0.103727 -19.991423 -5.437317 -0.679068 62.113918 1.757707 4.471602 -23.884422 0.312434 0.200650 
0.000000 43.418453 161.215073 -21.982422 0.000000 0.000000 79.267578 -0.527344 -0.312500 0.000000 0.000000 0.000000 -26.357422 -1.425781 0.448976 5.595703 2.050781 -0.214844 0.000000 0.000000 0.000000 -78.242188 -18.447268 -4.085122 -0.683594 -5.947266 6.044921 3.398438 -0.849609 -6.152472 0.000000 0.000000 0.000000 77.236328 18.613281 -3.974609 -0.039063 3.134766 5.078125 -2.050781 1.523438 -5.429688 -19.158001 3.846844 0.106419 58.440090 -2.016496 -3.503640 -16.689447 -0.017750 0.012236 -17.631905 -5.418533 -0.613615 55.599339 2.294704 4.293543 -21.609835 0.239063 0.146907 
0.000000 44.677616 162.128479 -19.521482 0.000000 0.000000 72.763672 -0.527344 -0.312500 0.000000 0.000000 0.000000 -26.357422 -1.425781 0.448976 5.595703 2.050781 -0.214844 0.000000 0.000000 0.000000 -77.871094 -18.417969 -4.257813 -0.683594 -5.947266 6.044921 3.398438 -0.849609 -6.152472 0.000000 0.000000 0.000000 76.689453 18.564455 -4.150391 -0.039063 3.134766 5.078125 -2.050781 1.523438 -5.429688 -16.636887 3.826868 0.175599 51.399582 -2.220389 -3.457073 -14.928850 0.274164 0.136207 -15.406585 -5.438176 -0.567392 49.075653 2.824264 3.713814 -19.144526 0.452955 0.242812 
0.000000 45.792038 163.041870 -17.050779 0.000000 0.000000 66.259766 -0.527344 -0.312590 0.000000 0.000000 0.000000 -26.357422 -1.425781 0.448976 5.595703 2.050781 -0.214844 0.000000 0.000000 0.000000 -77.314453 -18.378906 -4.443359 -0.683594 -5.947266 6.044921 3.398438 -0.849609 -6.152472 0.000000 0.000000 0.000000 76.318359 18.544924 -4.274236 -0.039063 3.134766 5.078125 -2.050781 1.523438 -5.429688 -14.097931 3.797434 0.264209 44.517742 -2.739980 -3.202460 -13.001451 0.380440 0.196110 -13.141829 -5.448299 -0.677984 42.895496 3.378553 3.644229 -16.852461 0.298422 0.166737 
0.000000 46.790676 163.955292 -14.599609 0.000000 0.000000 59.755856 -0.527344 -0.312500 0.000000 0.000000 0.000000 -26.357422 -1.425781 0.448976 5.595703 2.050781 -0.214844 0.000000 0.000000 0.000000 -76.767578 -18.330078 -4.622211 -0.683594 -5.947266 6.044921 3.398438 -0.849609 -6.152472 0.000000 0.000000 0.000000 75.761719 18.496092 -4.459793 -0.039063 3.134766 5.078125 -2.050781 1.523438 -5.429688 -11.708121 3.808146 0.161267 37.626369 -3.195258 -2.673975 -11.058811 0.330177 0.163172 -10.829403 -5.419656 -0.623376 36.143215 3.739328 3.228148 -14.212643 0.389919 0.206241 
0.000000 47.666279 164.411987 -12.138672 0.000000 0.000000 53.076172 -0.527344 -0.312500 0.000000 0.000000 0.000000 -26.357422 -1.425781 0.448976 5.595703 2.050781 -0.214844 0.000000 0.000000 0.000000 -76.396484 -18.300781 -4.746093 -0.683594 -5.947266 6.044921 3.398438 -0.849609 -6.152472 0.000000 0.000000 0.000000 75.390625 18.466797 -4.638672 -0.039063 3.134766 5.078125 -2.050781 1.523438 -5.429688 -9.258249 3.824062 0.241640 30.736561 -3.184487 -2.364706 -9.140255 0.076887 0.036401 -8.598480 -5.446157 -0.578191 29.382460 4.091516 2.664385 -11.754247 0.199340 0.295653 
0.000000 48.375473 165.325378 -9.677734 0.000000 0.000000 46.748043 -0.527344 -0.312500 0.000000 0.000000 0.000000 -26.357422 -1.425781 0.448976 5.595703 2.050781 -0.214844 0.000000 0.000000 0.000000 -75.839844 -18.261719 -4.931640 -0.683594 -5.947266 6.044921 3.398438 -0.849609 -6.152472 0.000000 0.000000 0.000000 75.029297 18.437502 -4.755859 -0.039063 3.134766 5.078125 -2.050781 1.523438 -5.429688 -6.749421 3.784209 0.145058 23.950609 -3.691603 -1.828464 -7.361703 0.072703 0.225753 -6.471271 -5.417079 -0.360240 23.090855 4.526135 1.891147 -9.298345 0.306286 0.317997 
0.000000 48.918209 166.238800 -7.207031 0.000000 0.000000 40.244141 -0.527344 -0.312500 0.000000 0.000000 0.000000 -26.357422 -1.425781 0.448976 5.595703 2.050781 -0.214844 0.000000 0.000000 0.000000 -75.292969 -18.212893 -5.110474 -0.683594 -5.947266 6.044921 3.398438 -0.849609 -6.152472 0.000000 0.000000 0.000000 74.472664 18.388670 -4.938326 -0.039063 3.134766 5.078125 -2.050781 1.523438 -5.429688 -4.362487 3.796435 0.239457 17.151571 -3.680886 -1.697515 -5.271002 0.153409 0.055761 -4.198454 -5.408978 -0.461903 16.552208 4.697031 1.568825 -7.012882 0.261309 0.299643 
0.000000 49.301743 167.152161 -4.755859 0.000000 0.000000 33.564449 -0.527344 -0.312500 0.000000 0.000000 0.000000 -26.357422 -1.425781 0.448976 5.595703 2.050781 -0.214844 0.000000 0.000000 0.000000 -74.736328 -18.164063 -5.296012 -0.683594 -5.947266 6.044921 3.398438 -0.849609 -6.152472 0.000000 0.000000 0.000000 74.101563 18.349609 -5.058593 -0.039063 3.134766 5.078125 -2.050781 1.523438 -5.429688 -1.893380 3.757900 0.142350 10.191099 -3.797341 -0.852416 -3.327899 -0.112502 -0.046438 -1.737814 -5.349800 -0.398991 9.734987 4.862343 0.851698 -4.375288 0.203721 0.277070 
